<svg width="59" height="59" viewBox="0 0 59 59" fill="none" xmlns="http://www.w3.org/2000/svg">
<rect width="58.871" height="58.871" rx="10" fill="#1B2133"/>
<g clip-path="url(#clip0_1_1764)">
<path d="M36.6331 34.6091L39.686 34.6091C40.1075 34.6091 40.4492 34.2674 40.4492 33.8459L40.4492 21.6344C40.4492 21.213 40.1075 20.8712 39.686 20.8712L36.6331 20.8712C36.2116 20.8712 35.8699 21.2129 35.8699 21.6344L35.8699 33.8459C35.8699 34.2674 36.2115 34.6091 36.6331 34.6091Z" fill="white"/>
<path d="M17.5662 32.5859C17.7008 33.7698 18.8068 34.609 19.9984 34.609L25.9486 34.609C25.443 35.5145 25.1715 38.0755 25.1836 39.1217C25.2035 40.8535 26.6376 42.2412 28.3694 42.2412L28.9992 42.2412C29.4211 42.2412 29.7625 41.8999 29.7625 41.478C29.7625 39.7131 30.4497 36.5275 31.7458 35.2313C32.6181 34.359 33.3639 34.0428 34.3418 33.5541L34.3418 22.1021C32.8446 21.603 30.9437 20.871 28.0463 20.871L23.0537 20.871C21.4086 20.871 20.1274 22.3946 20.7648 24.0044C19.7937 24.2689 19.0774 25.1596 19.0774 26.2136C19.0774 26.511 19.1348 26.7957 19.2384 27.0573C17.6018 27.5032 16.9994 29.524 18.1353 30.7929C17.718 31.2591 17.4878 31.8968 17.5662 32.5859Z" fill="white"/>
</g>
<defs>
<clipPath id="clip0_1_1764">
<rect width="26" height="26" fill="white" transform="translate(42 46.8711) rotate(-180)"/>
</clipPath>
</defs>
</svg>
