<svg width="31" height="31" viewBox="0 0 31 31" fill="none" xmlns="http://www.w3.org/2000/svg">
<path d="M17.1348 8.38476C17.1348 6.58192 15.6681 5.11523 13.8652 5.11523C12.0624 5.11523 10.5957 6.58192 10.5957 8.38476C10.5957 10.1876 12.0624 11.6543 13.8652 11.6543C15.6681 11.6543 17.1348 10.1876 17.1348 8.38476ZM11.8066 8.38476C11.8066 7.24963 12.7301 6.32617 13.8652 6.32617C15.0004 6.32617 15.9238 7.24963 15.9238 8.38476C15.9238 9.51989 15.0004 10.4434 13.8652 10.4434C12.7301 10.4434 11.8066 9.51989 11.8066 8.38476Z" fill="black"/>
<path d="M8.58253 16.2137C9.3605 15.8173 9.93751 15.1417 10.2074 14.3113C10.4772 13.4809 10.4075 12.5951 10.0111 11.8172C9.61467 11.0393 8.93903 10.4623 8.10869 10.1924C7.27823 9.92255 6.39249 9.9923 5.61458 10.3887C4.83661 10.7851 4.2596 11.4607 3.98975 12.2911C3.71995 13.1215 3.78964 14.0073 4.18604 14.7852C4.58244 15.5631 5.25808 16.1402 6.08842 16.41C6.42094 16.518 6.76225 16.5716 7.10198 16.5716C7.61075 16.5717 8.11601 16.4514 8.58253 16.2137ZM6.4626 15.2584C5.93984 15.0885 5.5145 14.7252 5.26492 14.2355C5.01535 13.7457 4.97145 13.1881 5.14135 12.6653C5.31118 12.1426 5.67446 11.7172 6.16423 11.4676C6.45794 11.318 6.77599 11.2423 7.09635 11.2423C7.3102 11.2423 7.52514 11.2761 7.73445 11.3441C8.25721 11.5139 8.68255 11.8772 8.93213 12.3669C9.1817 12.8567 9.2256 13.4143 9.0557 13.9371C8.88587 14.4599 8.52259 14.8852 8.03282 15.1348C7.543 15.3843 6.98536 15.4282 6.4626 15.2584Z" fill="black"/>
<path d="M7.76056 23.9014C8.33963 24.3221 9.0117 24.5246 9.67789 24.5246C10.6898 24.5246 11.6883 24.0575 12.3272 23.1781C12.8405 22.4716 13.0479 21.6075 12.9113 20.7449C12.7746 19.8824 12.3103 19.1247 11.6038 18.6114C10.8973 18.0982 10.0334 17.8906 9.17069 18.0274C8.30814 18.1639 7.55046 18.6283 7.0372 19.3347C5.97769 20.7931 6.30216 22.8417 7.76056 23.9014ZM8.01697 20.0465C8.34011 19.6017 8.81716 19.3094 9.3602 19.2233C9.46925 19.2061 9.57829 19.1975 9.68661 19.1975C10.1177 19.1975 10.5367 19.3329 10.8922 19.5912C11.8104 20.2583 12.0147 21.5481 11.3475 22.4663C10.6804 23.3845 9.3906 23.5889 8.47234 22.9217C7.55409 22.2546 7.34981 20.9647 8.01697 20.0465Z" fill="black"/>
<path d="M18.0517 24.5245C18.7179 24.5245 19.3902 24.3219 19.9691 23.9013C21.4275 22.8417 21.752 20.7931 20.6924 19.3347C20.1791 18.6282 19.4214 18.1639 18.5589 18.0273C17.6964 17.8907 16.8323 18.0981 16.1258 18.6114C15.4193 19.1247 14.955 19.8824 14.8183 20.7449C14.6817 21.6074 14.8892 22.4715 15.4024 23.178C16.0415 24.0575 17.0398 24.5245 18.0517 24.5245ZM16.8375 19.5911C17.2823 19.2679 17.8261 19.1372 18.3694 19.2233C18.9125 19.3093 19.3895 19.6016 19.7127 20.0465C20.3798 20.9647 20.1755 22.2545 19.2573 22.9217C18.339 23.5888 17.0492 23.3846 16.3821 22.4663C15.715 21.548 15.9193 20.2582 16.8375 19.5911Z" fill="black"/>
<path d="M19.6216 10.1923C18.7912 10.4622 18.1156 11.0392 17.7192 11.8171C17.3228 12.5951 17.2532 13.4809 17.5229 14.3113C17.7928 15.1417 18.3698 15.8173 19.1478 16.2136C19.6143 16.4513 20.1195 16.5716 20.6283 16.5716C20.9681 16.5716 21.3095 16.518 21.6419 16.41C22.4723 16.1401 23.1479 15.5631 23.5443 14.7852C23.9407 14.0072 24.0104 13.1214 23.7406 12.291C23.4707 11.4606 22.8937 10.785 22.1157 10.3887C21.3378 9.99226 20.452 9.92263 19.6216 10.1923ZM21.566 11.4676C22.0558 11.7172 22.4191 12.1425 22.5889 12.6653C22.7588 13.1881 22.7149 13.7457 22.4653 14.2355C22.2158 14.7252 21.7905 15.0885 21.2677 15.2583C20.7448 15.4282 20.1873 15.3843 19.6975 15.1348C19.2077 14.8852 18.8444 14.4599 18.6746 13.9371C18.5047 13.4143 18.5486 12.8567 18.7982 12.3669C19.0478 11.8771 19.473 11.5139 19.9959 11.344C20.2052 11.276 20.4201 11.2423 20.634 11.2423C20.9543 11.2423 21.2723 11.3179 21.566 11.4676Z" fill="black"/>
<path d="M15.9416 15.5001C15.9416 14.3552 15.0102 13.4238 13.8653 13.4238C12.7205 13.4238 11.7891 14.3552 11.7891 15.5001C11.7891 16.645 12.7205 17.5764 13.8653 17.5764C15.0102 17.5764 15.9416 16.645 15.9416 15.5001ZM13 15.5001C13 15.0229 13.3882 14.6348 13.8653 14.6348C14.3425 14.6348 14.7307 15.0229 14.7307 15.5001C14.7307 15.9773 14.3425 16.3654 13.8653 16.3654C13.3882 16.3654 13 15.9773 13 15.5001Z" fill="black"/>
<path d="M30.8227 26.7469C30.138 26.0622 29.2277 25.6852 28.2595 25.6852C27.2913 25.6852 26.381 26.0623 25.6963 26.7469C24.7887 27.6545 23.582 28.1543 22.2986 28.1543H19.5486C21.0643 27.4728 22.4591 26.5144 23.6694 25.3042C26.2882 22.6854 27.7305 19.2035 27.7305 15.5C27.7305 12.7911 26.9491 10.1667 25.4707 7.91051C25.2875 7.63078 24.9121 7.55262 24.6324 7.73589C24.3527 7.91917 24.2745 8.2945 24.4578 8.57416C25.8066 10.6326 26.5195 13.0276 26.5195 15.5C26.5195 22.4776 20.8428 28.1543 13.8652 28.1543C6.88763 28.1543 1.21094 22.4776 1.21094 15.5C1.21094 8.5224 6.88763 2.8457 13.8652 2.8457C16.3418 2.8457 18.7402 3.56088 20.801 4.91398C21.0805 5.09756 21.4559 5.01976 21.6395 4.74015C21.823 4.46061 21.7452 4.08528 21.4656 3.9017C19.2069 2.41867 16.5786 1.63477 13.8652 1.63477C10.1617 1.63477 6.67983 3.07699 4.06106 5.69583C1.44229 8.31466 0 11.7965 0 15.5C0 19.2035 1.44223 22.6854 4.06106 25.3042C6.67983 27.923 10.1617 29.3652 13.8652 29.3652H22.2986C23.9055 29.3652 25.4163 28.7395 26.5526 27.6031C27.0085 27.1472 27.6147 26.8961 28.2595 26.8961C28.9042 26.8961 29.5104 27.1472 29.9663 27.6031C30.2028 27.8396 30.5862 27.8396 30.8227 27.6031C31.0591 27.3667 31.0591 26.9833 30.8227 26.7469Z" fill="black"/>
<path d="M23.2461 6.73328C23.4053 6.73328 23.5615 6.6691 23.6742 6.55648C23.7868 6.44326 23.8516 6.28766 23.8516 6.12842C23.8516 5.96857 23.7868 5.81297 23.6742 5.69975C23.5615 5.58713 23.4053 5.52295 23.2461 5.52295C23.0869 5.52295 22.9306 5.58713 22.818 5.69975C22.7054 5.81297 22.6406 5.96857 22.6406 6.12842C22.6406 6.28766 22.7054 6.44387 22.818 6.55648C22.9306 6.6691 23.0869 6.73328 23.2461 6.73328Z" fill="black"/>
</svg>
